<svg xmlns="http://www.w3.org/2000/svg" version="1.1" xmlns:xlink="http://www.w3.org/1999/xlink" xmlns:svgjs="http://svgjs.dev/svgjs" width="94" height="78" viewBox="0 0 2000 1247"><g transform="matrix(1,0,0,1,-1.2121212121212466,211.2532873676032)"><svg viewBox="0 0 396 247" data-background-color="#444444" preserveAspectRatio="xMidYMid meet" height="1247" width="2000" xmlns="http://www.w3.org/2000/svg" xmlns:xlink="http://www.w3.org/1999/xlink"><g id="tight-bounds" transform="matrix(1,0,0,1,0.2400000000000091,-0.09999999999999432)"><svg viewBox="0 0 395.52 247.2" height="247.2" width="395.52"><g><svg></svg></g><g><svg viewBox="0 0 395.52 247.2" height="247.2" width="395.52"><g transform="matrix(1,0,0,1,75.54432000000001,78.37947018008651)"><svg viewBox="0 0 244.43135999999996 90.44105963982696" height="90.44105963982696" width="244.43135999999996"><g><svg viewBox="0 0 244.43135999999996 90.44105963982696" height="90.44105963982696" width="244.43135999999996"><g><svg viewBox="0 0 244.43135999999996 90.44105963982696" height="90.44105963982696" width="244.43135999999996"><g><svg viewBox="0 0 244.43135999999996 90.44105963982696" height="90.44105963982696" width="244.43135999999996"><g id="textblocktransform"><svg viewBox="0 0 244.43135999999996 90.44105963982696" height="90.44105963982696" width="244.43135999999996" id="textblock"><g><svg viewBox="0 0 244.43135999999996 51.64140316057774" height="51.64140316057774" width="244.43135999999996"><g transform="matrix(1,0,0,1,0,0)"><svg width="244.43135999999996" viewBox="1.25 -35.85 176.53 37.300000000000004" height="51.64140316057774" data-palette-color="#ffffff"><path d="M11.5-22.45L11.5-22.45Q12.4-22.45 13.13-22.23 13.85-22 13.9-22L13.9-22 14.2-22.25 14-27.7Q13.9-29.1 13.4-30.1 12.9-31.1 12.5-31.4L12.5-31.4 12.05-31.65Q11.75-31.85 11.75-32.1L11.75-32.1Q11.75-32.85 14.08-33.85 16.4-34.85 17.7-34.85 19-34.85 19.1-34.3L19.1-34.3Q19.35-32.6 19.35-27.83 19.35-23.05 19.13-18.45 18.9-13.85 18.9-8.03 18.9-2.2 19.65-0.7L19.65-0.7Q19.85-0.35 19.85-0.05L19.85-0.05Q19.85 0.7 17.7 0.7L17.7 0.7Q13.6 0.7 13.6-1.25L13.6-1.25Q13.5-2.05 13.5-3.73 13.5-5.4 13.83-9.98 14.15-14.55 14.15-17.03 14.15-19.5 11.68-19.5 9.2-19.5 7.9-16.6 6.6-13.7 6.6-10.8L6.6-10.8Q6.6-4.65 9.7-4.65L9.7-4.65Q10.15-4.65 10.58-4.83 11-5 11.1-5L11.1-5Q11.5-5 11.73-4.5 11.95-4 11.95-3.5L11.95-3.5Q11.95-1.8 10.6-0.63 9.25 0.55 7.3 0.55L7.3 0.55Q4.3 0.55 2.78-2.08 1.25-4.7 1.25-8.6L1.25-8.6Q1.25-13.55 3.6-17.8L3.6-17.8Q4.8-19.9 6.85-21.18 8.9-22.45 11.5-22.45ZM27-18.85L27-18.85Q25.7-18.8 25.12-18.78 24.55-18.75 24.55-19.05 24.55-19.35 24.85-19.65L24.85-19.65Q28.05-22.6 35.65-22.6L35.65-22.6Q38.25-22.6 39.75-22.15L39.75-22.15 40.25-22Q40.85-21.75 40.85-21.45L40.85-21.45Q40.85-21.2 40.5-21.05L40.5-21.05Q39.15-20.65 37.9-19.78 36.65-18.9 36.65-18.55L36.65-18.55 36.95-18.2Q38.55-17.3 39.42-15.35 40.3-13.4 40.4-11.9L40.4-11.9 40.5-10.35Q40.5-5.4 37.75-2.2 35 1 30.25 1L30.25 1Q27.85 1 26.1 0.15 24.35-0.7 23.52-1.78 22.7-2.85 22.2-4.2L22.2-4.2Q21.6-6.05 21.6-8.03 21.6-10 22.27-12 22.95-14 23.82-14.95 24.7-15.9 25.8-16.5L25.8-16.5Q27.2-17.25 28.05-17.25 28.9-17.25 28.9-16.9L28.9-16.9 28.6-16.4Q27.5-15.1 27.02-13 26.55-10.9 26.55-9.28 26.55-7.65 26.95-6.05 27.35-4.45 27.85-3.68 28.35-2.9 29-2.5L29-2.5Q29.95-1.9 31-1.9 32.05-1.9 33.05-2.73 34.05-3.55 34.5-4.9L34.5-4.9Q35.4-7.4 35.4-10.05L35.4-10.05Q35.4-14.25 33.27-16.55 31.15-18.85 27-18.85ZM47.99-18.85L47.99-18.85Q46.7-18.8 46.12-18.78 45.55-18.75 45.55-19.05 45.55-19.35 45.84-19.65L45.84-19.65Q49.05-22.6 56.64-22.6L56.64-22.6Q59.25-22.6 60.75-22.15L60.75-22.15 61.25-22Q61.84-21.75 61.84-21.45L61.84-21.45Q61.84-21.2 61.5-21.05L61.5-21.05Q60.14-20.65 58.89-19.78 57.64-18.9 57.64-18.55L57.64-18.55 57.95-18.2Q59.55-17.3 60.42-15.35 61.3-13.4 61.39-11.9L61.39-11.9 61.5-10.35Q61.5-5.4 58.75-2.2 55.99 1 51.24 1L51.24 1Q48.84 1 47.09 0.15 45.34-0.7 44.52-1.78 43.7-2.85 43.2-4.2L43.2-4.2Q42.59-6.05 42.59-8.03 42.59-10 43.27-12 43.95-14 44.82-14.95 45.7-15.9 46.8-16.5L46.8-16.5Q48.2-17.25 49.05-17.25 49.89-17.25 49.89-16.9L49.89-16.9 49.59-16.4Q48.49-15.1 48.02-13 47.55-10.9 47.55-9.28 47.55-7.65 47.95-6.05 48.34-4.45 48.84-3.68 49.34-2.9 49.99-2.5L49.99-2.5Q50.95-1.9 51.99-1.9 53.05-1.9 54.05-2.73 55.05-3.55 55.49-4.9L55.49-4.9Q56.39-7.4 56.39-10.05L56.39-10.05Q56.39-14.25 54.27-16.55 52.14-18.85 47.99-18.85ZM74.09-22.45L74.09-22.45Q74.99-22.45 75.72-22.23 76.44-22 76.49-22L76.49-22 76.79-22.25 76.59-27.7Q76.49-29.1 75.99-30.1 75.49-31.1 75.09-31.4L75.09-31.4 74.64-31.65Q74.34-31.85 74.34-32.1L74.34-32.1Q74.34-32.85 76.67-33.85 78.99-34.85 80.29-34.85 81.59-34.85 81.69-34.3L81.69-34.3Q81.94-32.6 81.94-27.83 81.94-23.05 81.72-18.45 81.49-13.85 81.49-8.03 81.49-2.2 82.24-0.7L82.24-0.7Q82.44-0.35 82.44-0.05L82.44-0.05Q82.44 0.7 80.29 0.7L80.29 0.7Q76.19 0.7 76.19-1.25L76.19-1.25Q76.09-2.05 76.09-3.73 76.09-5.4 76.42-9.98 76.74-14.55 76.74-17.03 76.74-19.5 74.27-19.5 71.79-19.5 70.49-16.6 69.19-13.7 69.19-10.8L69.19-10.8Q69.19-4.65 72.29-4.65L72.29-4.65Q72.74-4.65 73.17-4.83 73.59-5 73.69-5L73.69-5Q74.09-5 74.32-4.5 74.54-4 74.54-3.5L74.54-3.5Q74.54-1.8 73.19-0.63 71.84 0.55 69.89 0.55L69.89 0.55Q66.89 0.55 65.37-2.08 63.84-4.7 63.84-8.6L63.84-8.6Q63.84-13.55 66.19-17.8L66.19-17.8Q67.39-19.9 69.44-21.18 71.49-22.45 74.09-22.45ZM91.14-26.85L91.14-26.85 91.09-22Q91.09-21.7 91.29-21.7 91.49-21.7 91.69-21.85L91.69-21.85Q92.94-22.7 95.64-22.7L95.64-22.7Q100.19-22.7 101.94-19.6L101.94-19.6Q102.59-18.45 102.59-16.55 102.59-14.65 102.36-11.3 102.14-7.95 102.14-6.55L102.14-6.55Q102.14-1.65 103.54-0.05L103.54-0.05Q103.79 0.2 103.79 0.45L103.79 0.45Q103.79 0.95 101.64 0.95L101.64 0.95Q95.84 0.95 95.84-4.45L95.84-4.45Q95.84-6.55 96.84-10.35 97.84-14.15 97.84-15.95 97.84-17.75 96.99-18.73 96.14-19.7 94.64-19.7 93.14-19.7 92.27-19.05 91.39-18.4 91.19-17.7L91.19-17.7 91.04-17.05Q90.99-16.1 90.99-11 90.99-5.9 91.24-4.38 91.49-2.85 91.49-2.65L91.49-2.65Q91.49-1.2 89.54-0.08 87.59 1.05 85.69 1.05L85.69 1.05Q84.99 1.05 84.99 0.25L84.99 0.25 85.09-0.7Q86.19-9.1 86.19-18.9L86.19-18.9Q86.19-22.7 85.89-26.6L85.89-26.6 85.84-27.7Q85.74-29.1 85.27-30.1 84.79-31.1 84.39-31.4L84.39-31.4 83.94-31.65Q83.59-31.85 83.59-32.1L83.59-32.1Q83.59-32.8 85.94-33.83 88.29-34.85 89.56-34.85 90.84-34.85 90.94-34.3L90.94-34.3Q91.14-31.75 91.14-26.85ZM116.64-20.95L116.64-20.95Q116.84-20.95 117.39-20.55 117.94-20.15 118.54-20.15L118.54-20.15 118.59-20.15Q120.29-20.15 121.29-21.5 122.29-22.85 122.39-24.2L122.39-24.2 122.54-25.55Q122.54-27.45 121.96-28.83 121.39-30.2 120.64-30.88 119.89-31.55 118.89-31.9L118.89-31.9Q117.64-32.4 116.26-32.4 114.89-32.4 114.04-32.13 113.19-31.85 113.09-31.6L113.09-31.6 113.04-31.3Q112.59-24.55 112.59-19.23 112.59-13.9 112.76-10.05 112.94-6.2 113.11-4.13 113.29-2.05 113.29-1.85L113.29-1.85Q113.29-0.6 111.09 0.15 108.89 0.9 106.74 0.9L106.74 0.9Q105.74 0.9 105.74 0.4L105.74 0.4Q105.74 0.25 105.89-0.3L105.89-0.3Q106.84-2.5 106.84-20.75L106.84-20.75Q106.84-31.5 105.39-33.05L105.39-33.05Q105.09-33.35 105.09-33.68 105.09-34 105.81-34.4 106.54-34.8 109.89-35.33 113.24-35.85 116.99-35.85L116.99-35.85Q122.89-35.85 125.86-32.65 128.84-29.45 128.84-25.03 128.84-20.6 126.41-17.35 123.99-14.1 120.09-14.1L120.09-14.1Q118.84-14.1 117.59-14.55L117.59-14.55Q115.09-15.45 115.09-18.3L115.09-18.3Q115.09-18.9 115.49-19.93 115.89-20.95 116.64-20.95ZM144.88-15L144.88-15 144.78-8.6Q144.78-1.95 146.24-0.6L146.24-0.6Q146.44-0.4 146.44-0.15L146.44-0.15Q146.44 0.6 143.21 0.6 139.99 0.6 139.78-1.3L139.78-1.3Q139.74-1.75 139.74-3.15L139.74-3.15 139.94-11.15Q139.94-11.5 139.53-11.5L139.53-11.5Q137.13-11.5 135.03-10.15 132.94-8.8 132.94-6.7L132.94-6.7Q132.94-5.6 133.53-4.85 134.13-4.1 135.01-4.1 135.88-4.1 136.46-4.45 137.03-4.8 137.13-4.85L137.13-4.85Q137.99-4.75 137.99-3.08 137.99-1.4 136.44-0.38 134.88 0.65 133.19 0.65 131.49 0.65 130.26 0.05 129.03-0.55 128.49-1.3 127.94-2.05 127.59-3L127.59-3Q127.23-4.15 127.23-5L127.23-5Q127.23-8.5 129.44-10.6 131.63-12.7 135.09-13.6L135.09-13.6Q139.63-14.5 139.84-15.25L139.84-15.25Q139.99-15.8 139.99-17.1L139.99-17.1Q139.99-19.75 137.28-19.75L137.28-19.75Q136.13-19.75 135.24-19.03 134.34-18.3 134.34-17.2L134.34-17.2 134.63-16Q134.53-15.15 132.84-15L132.84-15 132.28-14.95Q130.78-14.95 129.91-15.7 129.03-16.45 129.03-17.7L129.03-17.7Q129.03-18.5 129.56-19.48 130.09-20.45 130.88-21.05 131.69-21.65 133.36-22.13 135.03-22.6 136.59-22.6 138.13-22.6 138.99-22.5 139.84-22.4 141.31-22.03 142.78-21.65 143.76-20.6 144.74-19.55 144.81-18.38 144.88-17.2 144.88-15ZM147.18-19.5L147.18-19.5 147.33-21.5Q147.38-21.95 148.03-21.95L148.03-21.95 149.78-21.95 149.58-25.95 149.58-26.15Q149.58-27.3 151.33-28.35 153.08-29.4 154.53-29.4L154.53-29.4Q154.98-29.4 154.98-29L154.98-29 154.98-28.95Q154.78-27.6 154.58-22L154.58-22Q156.78-22 157.38-22.1 157.98-22.2 158.03-22.2L158.03-22.2Q158.38-22.2 158.38-21.6 158.38-21 157.83-20.08 157.28-19.15 156.63-19.1L156.63-19.1 154.53-19.1Q154.48-17.4 154.48-13.38 154.48-9.35 154.56-6.75 154.63-4.15 154.73-2.83 154.83-1.5 154.96-0.7 155.08 0.1 155.16 0.45 155.23 0.8 155.23 0.9L155.23 0.9Q155.23 1.4 154.58 1.45L154.58 1.45Q152.63 1.45 150.71 0.9 148.78 0.35 148.78-1L148.78-1Q149.83-9.4 149.83-19.05L149.83-19.05Q148.48-19.05 147.78-18.95L147.78-18.95 147.73-18.95Q147.28-18.95 147.18-19.5ZM158.38-19.5L158.38-19.5 158.53-21.5Q158.58-21.95 159.23-21.95L159.23-21.95 160.98-21.95 160.78-25.95 160.78-26.15Q160.78-27.3 162.53-28.35 164.28-29.4 165.73-29.4L165.73-29.4Q166.18-29.4 166.18-29L166.18-29 166.18-28.95Q165.98-27.6 165.78-22L165.78-22Q167.98-22 168.58-22.1 169.18-22.2 169.23-22.2L169.23-22.2Q169.58-22.2 169.58-21.6 169.58-21 169.03-20.08 168.48-19.15 167.83-19.1L167.83-19.1 165.73-19.1Q165.68-17.4 165.68-13.38 165.68-9.35 165.75-6.75 165.83-4.15 165.93-2.83 166.03-1.5 166.16-0.7 166.28 0.1 166.35 0.45 166.43 0.8 166.43 0.9L166.43 0.9Q166.43 1.4 165.78 1.45L165.78 1.45Q163.83 1.45 161.91 0.9 159.98 0.35 159.98-1L159.98-1Q161.03-9.4 161.03-19.05L161.03-19.05Q159.68-19.05 158.98-18.95L158.98-18.95 158.93-18.95Q158.48-18.95 158.38-19.5ZM175.48-26.75L175.48-26.75 174.28-26.8Q172.93-26.8 172.53-26.15L172.53-26.15Q172.43-26 172.28-26L172.28-26Q171.63-26 171.63-28.23 171.63-30.45 172.3-31.05 172.98-31.65 174.65-31.65 176.33-31.65 176.93-31.08 177.53-30.5 177.53-29.15 177.53-27.8 177.08-27.28 176.63-26.75 175.48-26.75ZM171.48-1.5L171.48-1.5 172.03-13.15Q172.03-17.3 171.08-18.8L171.08-18.8Q170.78-19.3 170.38-19.55L170.38-19.55Q170.08-19.65 170.08-19.95L170.08-19.95Q170.08-20.85 172.63-21.7 175.18-22.55 176.35-22.55 177.53-22.55 177.58-21.95L177.58-21.95Q177.58-20.95 177.3-16.28 177.03-11.6 177.03-6.45 177.03-1.3 177.63-0.05L177.63-0.05Q177.78 0.2 177.78 0.45L177.78 0.45Q177.78 1.1 175.88 1.1 173.98 1.1 171.98 0.1L171.98 0.1Q171.48-0.15 171.48-1.5Z" opacity="1" transform="matrix(1,0,0,1,0,0)" fill="#000000" class="wordmark-text-0" data-fill-palette-color="primary" id="text-0"></path></svg></g></svg></g><g transform="matrix(1,0,0,1,0,63.83269905311429)"><svg viewBox="0 0 244.43135999999996 26.608360586712674" height="26.608360586712674" width="244.43135999999996"><g transform="matrix(1,0,0,1,0,0)"><svg width="244.43135999999996" viewBox="1.5 -37.35 347.7 37.85" height="26.608360586712674" data-palette-color="#00d1cd"><path d="M10.9 0L10.9-31.85 1.5-31.85 1.5-36.75 25.95-36.75 25.95-31.85 16.45-31.85 16.45 0 10.9 0ZM29.25 0L29.25-36.75 34.5-36.75 34.5-22.95 34.3-18.7Q35.25-20.8 37.35-22.18 39.45-23.55 42.25-23.55L42.25-23.55Q45.8-23.55 47.7-22.08 49.6-20.6 50.25-17.95 50.9-15.3 50.9-11.05L50.9-11.05 50.9 0 45.55 0 45.55-11.1Q45.55-14 45.23-15.65 44.9-17.3 43.93-18.15 42.95-19 41.1-19L41.1-19Q39.6-19 38.08-18.1 36.55-17.2 35.55-15.48 34.55-13.75 34.55-11.4L34.55-11.4 34.55 0 29.25 0ZM68.6 0.5Q64.5 0.5 61.75-1.13 59-2.75 57.7-5.48 56.4-8.2 56.4-11.45L56.4-11.45Q56.4-15.1 57.93-17.85 59.45-20.6 62.15-22.08 64.85-23.55 68.25-23.55L68.25-23.55Q73.55-23.55 76.13-20.63 78.7-17.7 78.7-12.4L78.7-12.4Q78.7-11.05 78.55-9.6L78.55-9.6 62.05-9.6Q62.6-6.55 64.23-5.2 65.85-3.85 68.75-3.85L68.75-3.85Q71.15-3.85 72.7-4.25 74.25-4.65 75.55-5.35L75.55-5.35 77.2-1.5Q75.95-0.7 73.8-0.1 71.65 0.5 68.6 0.5L68.6 0.5ZM62.05-13.35L73.45-13.35Q73.5-16.45 72.1-17.73 70.7-19 68.1-19L68.1-19Q62.85-19 62.05-13.35L62.05-13.35ZM97.6 0L97.6-36.75 103.2-36.75 103.2 0 97.6 0ZM111.3 0L111.3-22.95 116.6-22.95 116.65-18.75Q117.6-20.85 119.65-22.2 121.7-23.55 124.45-23.55L124.45-23.55Q128-23.55 129.9-22.08 131.8-20.6 132.45-17.95 133.1-15.3 133.1-11.05L133.1-11.05 133.1 0 127.7 0 127.7-10.9Q127.7-15.25 126.85-17.18 126-19.1 123.35-19.1L123.35-19.1Q121.85-19.1 120.3-18.18 118.75-17.25 117.73-15.5 116.7-13.75 116.7-11.4L116.7-11.4 116.7 0 111.3 0ZM150.2 0.5Q147.1 0.5 144.47-0.98 141.85-2.45 140.28-5.18 138.7-7.9 138.7-11.55L138.7-11.55Q138.7-17 141.75-20.28 144.8-23.55 150-23.55L150-23.55Q152.9-23.55 155.3-22.13 157.7-20.7 158.55-18.7L158.55-18.7 158.3-22.6 158.3-36.75 163.6-36.75 163.6 0 158.45 0 158.35-4.05Q157.5-2.25 155.25-0.88 153 0.5 150.2 0.5L150.2 0.5ZM151.1-4.05Q153.95-4.05 155.9-6.03 157.85-8 157.85-11.2L157.85-11.2 157.85-11.55Q157.85-13.7 156.95-15.4 156.05-17.1 154.5-18.05 152.95-19 151.1-19L151.1-19Q147.9-19 146.15-16.93 144.4-14.85 144.4-11.55L144.4-11.55Q144.4-8.2 146.13-6.13 147.85-4.05 151.1-4.05L151.1-4.05ZM171.15 0L171.15-22.95 176.75-22.95 176.75 0 171.15 0ZM173.9-27.25Q172.35-27.25 171.3-28.3 170.25-29.35 170.25-30.9L170.25-30.9Q170.25-32.3 171.3-33.3 172.35-34.3 173.9-34.3L173.9-34.3Q175.4-34.3 176.45-33.3 177.5-32.3 177.5-30.9L177.5-30.9Q177.5-29.35 176.47-28.3 175.45-27.25 173.9-27.25L173.9-27.25ZM194.4 0.5Q191.3 0.5 188.67-0.98 186.05-2.45 184.47-5.18 182.9-7.9 182.9-11.55L182.9-11.55Q182.9-15.15 184.27-17.85 185.65-20.55 188.2-22.05 190.75-23.55 194.2-23.55L194.2-23.55Q196.2-23.55 197.95-22.85 199.7-22.15 200.9-21.13 202.1-20.1 202.5-19.1L202.5-19.1 202.6-22.95 207.75-22.95 207.75 0 202.65 0 202.55-4.05Q201.7-2.25 199.45-0.88 197.2 0.5 194.4 0.5L194.4 0.5ZM195.3-4Q198.15-4 200.1-5.98 202.05-7.95 202.05-11.15L202.05-11.15 202.05-11.5Q202.05-13.65 201.15-15.35 200.25-17.05 198.7-18 197.15-18.95 195.3-18.95L195.3-18.95Q192.1-18.95 190.35-16.88 188.6-14.8 188.6-11.5L188.6-11.5Q188.6-8.15 190.32-6.08 192.05-4 195.3-4L195.3-4ZM215 0L215-22.95 220.3-22.95 220.35-18.75Q221.3-20.85 223.35-22.2 225.4-23.55 228.15-23.55L228.15-23.55Q231.7-23.55 233.6-22.08 235.5-20.6 236.15-17.95 236.8-15.3 236.8-11.05L236.8-11.05 236.8 0 231.4 0 231.4-10.9Q231.4-15.25 230.55-17.18 229.7-19.1 227.05-19.1L227.05-19.1Q225.55-19.1 224-18.18 222.45-17.25 221.42-15.5 220.4-13.75 220.4-11.4L220.4-11.4 220.4 0 215 0ZM266.7 0.5Q263.3 0.5 260.57-0.98 257.85-2.45 256.25-5.23 254.65-8 254.65-11.75L254.65-11.75Q254.65-15.3 256.13-17.98 257.6-20.65 260.27-22.1 262.95-23.55 266.45-23.55L266.45-23.55Q269.1-23.55 271.02-22.88 272.95-22.2 274.05-21.2L274.05-21.2 271.65-16.85Q269.55-18.95 266.9-18.95L266.9-18.95Q263.7-18.95 262.02-17 260.35-15.05 260.35-11.8L260.35-11.8Q260.35-8.1 262.07-6.05 263.8-4 266.9-4L266.9-4Q268.45-4 269.93-4.45 271.4-4.9 272.2-5.5L272.2-5.5 274.15-1.7Q273.05-0.85 271.07-0.18 269.1 0.5 266.7 0.5L266.7 0.5ZM279.55 0L279.55-36.75 284.8-36.75 284.8-22.95 284.6-18.7Q285.55-20.8 287.65-22.18 289.75-23.55 292.55-23.55L292.55-23.55Q296.1-23.55 298-22.08 299.9-20.6 300.55-17.95 301.2-15.3 301.2-11.05L301.2-11.05 301.2 0 295.85 0 295.85-11.1Q295.85-14 295.52-15.65 295.2-17.3 294.23-18.15 293.25-19 291.4-19L291.4-19Q289.9-19 288.38-18.1 286.85-17.2 285.85-15.48 284.85-13.75 284.85-11.4L284.85-11.4 284.85 0 279.55 0ZM318.9 0.5Q314.8 0.5 312.05-1.13 309.3-2.75 308-5.48 306.7-8.2 306.7-11.45L306.7-11.45Q306.7-15.1 308.23-17.85 309.75-20.6 312.45-22.08 315.15-23.55 318.55-23.55L318.55-23.55Q323.85-23.55 326.43-20.63 329-17.7 329-12.4L329-12.4Q329-11.05 328.85-9.6L328.85-9.6 312.35-9.6Q312.9-6.55 314.52-5.2 316.15-3.85 319.05-3.85L319.05-3.85Q321.45-3.85 323-4.25 324.55-4.65 325.85-5.35L325.85-5.35 327.5-1.5Q326.25-0.7 324.1-0.1 321.95 0.5 318.9 0.5L318.9 0.5ZM312.35-13.35L323.75-13.35Q323.8-16.45 322.4-17.73 321-19 318.4-19L318.4-19Q313.15-19 312.35-13.35L312.35-13.35ZM336.8 0L336.8-18.65 333.1-18.65 333.1-22.95 336.8-22.95 336.8-27.9Q336.8-32.4 338.98-34.88 341.15-37.35 345.35-37.35L345.35-37.35Q347.05-37.35 349.2-36.4L349.2-36.4 348.15-31.3Q347.8-31.7 347.08-32.08 346.35-32.45 345.5-32.45L345.5-32.45Q342.15-32.45 342.1-28.1L342.1-28.1 342.1-22.95 347.5-22.95 347.5-18.65 342.1-18.65 342.1 0 336.8 0Z" opacity="1" transform="matrix(1,0,0,1,0,0)" fill="#000000" class="slogan-text-1" data-fill-palette-color="secondary" id="text-1"></path></svg></g></svg></g></svg></g></svg></g><g></g></svg></g></svg></g></svg></g><g><path d="M89.869 66.188A122.216 122.216 0 0 1 305.651 66.188L300.994 66.188A117.559 117.559 0 0 0 94.526 66.188L89.869 66.188M89.869 181.012A122.216 122.216 0 0 0 305.651 181.012L300.994 181.012A117.559 117.559 0 0 1 94.526 181.012L89.869 181.012" fill="#000000" stroke="transparent" data-fill-palette-color="tertiary"></path></g></svg></g><defs></defs></svg><rect width="395.52" height="247.2" fill="none" stroke="none" visibility="hidden"></rect></g></svg></g></svg>