<svg xmlns="http://www.w3.org/2000/svg" version="1.1" xmlns:xlink="http://www.w3.org/1999/xlink" xmlns:svgjs="http://svgjs.dev/svgjs" width="128" height="128" viewBox="0 0 128 128"><g transform="matrix(0.8046875,0,0,0.8046875,12.333870967741937,12.333870967741937)"><svg viewBox="0 0 155 155" data-background-color="#444444" preserveAspectRatio="xMidYMid meet" height="128" width="128" xmlns="http://www.w3.org/2000/svg" xmlns:xlink="http://www.w3.org/1999/xlink"><g id="tight-bounds" transform="matrix(1,0,0,1,0.25,0.25)"><svg viewBox="0 0 154.5 154.5" height="154.5" width="154.5"><g><svg></svg></g><g><svg viewBox="0 0 154.5 154.5" height="154.5" width="154.5"><g transform="matrix(1,0,0,1,61.81350212658228,47.746371)"><svg viewBox="0 0 30.87299574683544 59.00725799999999" height="59.00725799999999" width="30.87299574683544"><g><svg viewBox="0 0 30.87299574683544 59.00725799999999" height="59.00725799999999" width="30.87299574683544"><g><svg viewBox="0 0 30.87299574683544 59.00725799999999" height="59.00725799999999" width="30.87299574683544"><g id="textblocktransform"><svg viewBox="0 0 30.87299574683544 59.00725799999999" height="59.00725799999999" width="30.87299574683544" id="textblock"><g><svg viewBox="0 0 30.87299574683544 59.00725799999999" height="59.00725799999999" width="30.87299574683544"><g transform="matrix(1,0,0,1,0,0)"><svg width="30.87299574683544" viewBox="1.25 -34.85 18.6 35.550000000000004" height="59.00725799999999" data-palette-color="#ffffff"><path d="M11.5-22.45L11.5-22.45Q12.4-22.45 13.13-22.23 13.85-22 13.9-22L13.9-22 14.2-22.25 14-27.7Q13.9-29.1 13.4-30.1 12.9-31.1 12.5-31.4L12.5-31.4 12.05-31.65Q11.75-31.85 11.75-32.1L11.75-32.1Q11.75-32.85 14.08-33.85 16.4-34.85 17.7-34.85 19-34.85 19.1-34.3L19.1-34.3Q19.35-32.6 19.35-27.83 19.35-23.05 19.13-18.45 18.9-13.85 18.9-8.03 18.9-2.2 19.65-0.7L19.65-0.7Q19.85-0.35 19.85-0.05L19.85-0.05Q19.85 0.7 17.7 0.7L17.7 0.7Q13.6 0.7 13.6-1.25L13.6-1.25Q13.5-2.05 13.5-3.73 13.5-5.4 13.83-9.98 14.15-14.55 14.15-17.03 14.15-19.5 11.68-19.5 9.2-19.5 7.9-16.6 6.6-13.7 6.6-10.8L6.6-10.8Q6.6-4.65 9.7-4.65L9.7-4.65Q10.15-4.65 10.58-4.83 11-5 11.1-5L11.1-5Q11.5-5 11.73-4.5 11.95-4 11.95-3.5L11.95-3.5Q11.95-1.8 10.6-0.63 9.25 0.55 7.3 0.55L7.3 0.55Q4.3 0.55 2.78-2.08 1.25-4.7 1.25-8.6L1.25-8.6Q1.25-13.55 3.6-17.8L3.6-17.8Q4.8-19.9 6.85-21.18 8.9-22.45 11.5-22.45Z" opacity="1" transform="matrix(1,0,0,1,0,0)" fill="#000000" class="wordmark-text-0" data-fill-palette-color="primary" id="text-0"></path></svg></g></svg></g></svg></g></svg></g><g></g></svg></g></svg></g><g><path d="M48.497 33.816A15.436 15.436 0 0 1 106.003 33.816L100.682 33.816A10.115 10.115 0 0 0 53.818 33.816L48.497 33.816M48.497 120.684A15.436 15.436 0 0 0 106.003 120.684L100.682 120.684A10.115 10.115 0 0 1 53.818 120.684L48.497 120.684" fill="#000000" stroke="transparent" data-fill-palette-color="tertiary"></path></g></svg></g><defs></defs></svg><rect width="154.5" height="154.5" fill="none" stroke="none" visibility="hidden"></rect></g></svg></g></svg>